<svg width="68" height="69" viewBox="0 0 68 69" fill="none" xmlns="http://www.w3.org/2000/svg">
<g clip-path="url(#clip0_7552_5570)">
<path d="M65.3416 0H2.65839C1.1902 0 0 1.16557 0 2.60337V66.3966C0 67.8344 1.1902 69 2.65839 69H65.3416C66.8098 69 68 67.8344 68 66.3966V2.60337C68 1.16557 66.8098 0 65.3416 0Z" fill="url(#paint0_linear_7552_5570)"/>
<path d="M3.11768 34.6717L5.32232 33.4138H6.28055V32.3036L7.72565 31.0078V33.4138H9.0869V34.6717H7.72565V38.1721C7.72565 38.733 7.75665 39.0787 7.82077 39.2105C7.88418 39.3423 8.04271 39.4079 8.29636 39.4079C8.56481 39.4079 10.7603 38.6613 11.0189 38.5612L8.97276 40.5478C8.60285 40.6768 8.23295 40.741 7.86234 40.741C7.42127 40.741 7.06404 40.645 6.79067 40.4546C6.51729 40.2628 6.45881 40.0234 6.38835 39.7356C6.31719 39.4472 6.28196 38.9518 6.28196 38.2466V34.6717H3.11768Z" fill="white"/>
<path d="M18.0133 39.3628L17.2841 40.6213H15.4275L14.8744 39.7423C14.1748 40.4081 13.2792 40.74 12.4175 40.74C11.7482 40.74 11.281 40.5268 10.7871 40.0997C10.2925 39.6726 10.0459 39.1268 10.0459 38.4616C10.0459 37.7965 10.308 37.2355 10.8329 36.7932C11.3571 36.3516 11.9898 36.1301 12.7297 36.1301C13.4194 36.1301 14.086 36.3337 14.73 36.7408V36.0259C14.73 35.6582 14.694 35.376 14.6236 35.1772C14.5524 34.9792 14.3868 34.8005 14.1254 34.6411C13.864 34.4824 13.5237 34.4024 13.1031 34.4024C12.3781 34.4024 11.8539 34.6853 11.529 35.2511L10.1452 34.8943C10.7582 33.7717 11.8179 33.2114 13.3236 33.2114C13.876 33.2114 14.3537 33.2853 14.7567 33.4315C15.1598 33.5778 15.4599 33.7662 15.6579 33.9973C15.8552 34.2278 15.9884 34.4776 16.0567 34.7453C16.125 35.0137 16.1596 35.4408 16.1596 36.0266V39.3628H18.0133ZM14.73 37.9407C14.1064 37.4639 13.4751 37.2258 12.8368 37.2258C12.4358 37.2258 12.1012 37.3397 11.8327 37.5681C11.5643 37.7965 11.4297 38.0925 11.4297 38.4547C11.4297 38.7921 11.5481 39.075 11.7827 39.3034C12.0187 39.5318 12.3393 39.6464 12.7452 39.6464C13.4441 39.6464 14.1064 39.3579 14.73 38.7825V37.9407Z" fill="white"/>
<path d="M23.3217 40.6077L19.9038 40.6263L21.8478 38.6943L21.196 39.3953L21.8907 39.3629V31.5217H20.5675V30.2632H23.3351V36.734L26.0879 34.5826H24.8641V33.4137H28.9316V34.5826H27.8064L25.0459 36.8313C25.0459 36.8313 26.7932 39.0207 27.6387 39.3629C27.9375 39.4837 30.3704 38.6177 30.3704 38.6177L29.2233 40.3655C29.2233 40.3655 27.476 40.7995 27.0384 40.6222C25.8286 40.1316 23.3344 36.9955 23.3344 36.9955V39.3636" fill="white"/>
<path d="M36.6424 33.4128V36.1383H35.3495C35.284 35.6167 35.067 35.2172 34.6999 34.9391C34.3321 34.661 33.9051 34.5223 33.4189 34.5223C32.7693 34.5223 32.2423 34.7466 31.8372 35.1958C31.4313 35.6457 31.2284 36.2342 31.2284 36.9642C31.2284 37.6446 31.4215 38.2442 31.8062 38.7624C32.1909 39.2813 32.7489 39.5407 33.4788 39.5407C34.4927 39.5407 35.2276 39.0688 35.6842 38.1255L37.385 37.5507C36.7256 38.9846 36.0682 40.6633 33.4182 40.8283C32.2543 40.9014 31.3348 40.4384 30.6654 39.6594C29.9961 38.8804 29.6621 37.9813 29.6621 36.9636C29.6621 35.8768 30.0271 34.9791 30.757 34.2712C31.487 33.5646 32.329 33.21 33.2823 33.21C34.0982 33.21 34.7872 33.4459 35.3502 33.9179V33.4114H36.6431L36.6424 33.4128Z" fill="white"/>
<path d="M37.0195 37.0171C37.0195 35.9055 37.3951 34.9933 38.1455 34.2812C38.8958 33.5684 39.8111 33.2124 40.8905 33.2124C41.9699 33.2124 42.8605 33.5636 43.6208 34.266C44.3817 34.9685 44.7615 35.8862 44.7615 37.0178C44.7615 38.1494 44.3824 39.0684 43.6243 39.7729C42.8662 40.4781 41.9551 40.83 40.8905 40.83C39.8259 40.83 38.8768 40.4733 38.1342 39.7577C37.3916 39.0429 37.0195 38.13 37.0195 37.0171ZM38.5485 37.0136C38.5485 37.725 38.7754 38.3081 39.2284 38.7635C39.6822 39.2182 40.2374 39.4452 40.8905 39.4452C41.5437 39.4452 42.1116 39.2161 42.5597 38.7559C43.0085 38.2963 43.2325 37.7153 43.2325 37.0136C43.2325 36.3119 43.0043 35.7254 42.5477 35.2686C42.0918 34.8111 41.5387 34.5827 40.8898 34.5827C40.2409 34.5827 39.6504 34.8167 39.2094 35.2838C38.7683 35.7509 38.5478 36.3271 38.5478 37.0143L38.5485 37.0136Z" fill="white"/>
<path d="M46.231 39.363V34.6717H45.0064V33.4138H47.6761V34.3226C48.5455 33.6422 49.3981 33.3027 50.2337 33.3027C51.0694 33.3027 51.6528 33.6767 51.9712 34.4267C52.9295 33.6767 53.8222 33.3027 54.6479 33.3027C55.1242 33.3027 55.516 33.4055 55.8225 33.6112C56.129 33.8168 56.3354 34.0776 56.4418 34.3929C56.5482 34.7076 56.6017 35.174 56.6017 35.7895V39.3637L57.975 39.3658L57.281 38.2397L58.8557 40.6223H55.1573V36.0427C55.1573 35.626 55.1383 35.332 55.1003 35.1602C55.0622 34.9884 54.9664 34.847 54.8114 34.7359C54.6571 34.6241 54.4711 34.5682 54.2527 34.5682C53.634 34.5682 52.9323 34.8787 52.146 35.499V39.3637H53.4086V40.6223H50.7023V35.9089C50.7023 35.4376 50.6325 35.096 50.4937 34.8842C50.3542 34.6738 50.1182 34.5682 49.7842 34.5682C49.2389 34.5682 48.5357 34.8787 47.6761 35.499V39.3637H48.9683V40.6223H44.9155V39.3637H46.2317L46.231 39.363Z" fill="white"/>
<path d="M57.3394 38.1686C57.5106 38.5191 58.9528 39.3568 59.315 39.5148C59.692 39.6783 60.1436 39.7735 60.5889 39.7735C61.0342 39.7735 61.428 39.6935 61.7071 39.5348C61.9861 39.3761 62.1256 39.1553 62.1256 38.8724C62.1256 38.5895 62.0107 38.3977 61.7796 38.2687C61.5492 38.1396 61.092 38.0209 60.4071 37.9126C59.3932 37.7449 58.6696 37.4731 58.2363 37.0984C57.803 36.7231 57.586 36.238 57.586 35.6411C57.586 35.0443 57.822 34.5371 58.2934 34.1321C58.7647 33.7271 59.3855 33.5249 60.1563 33.5249C60.851 33.5249 61.4492 33.665 61.9509 33.9451V33.6374H63.236V36.0268H61.9509V35.588C61.5598 34.9974 60.9926 34.702 60.2479 34.702C59.8681 34.702 59.5546 34.7828 59.3087 34.9435C59.0635 35.105 58.9395 35.3196 58.9395 35.588C58.9395 35.8564 59.0522 36.0482 59.2784 36.151C59.5038 36.2518 59.9893 36.3601 60.7347 36.474C61.4499 36.5823 61.9896 36.7099 62.3546 36.8562C62.7195 37.0025 63.0218 37.2461 63.2628 37.5869C63.5038 37.9264 63.6235 38.3225 63.6235 38.7744C63.6235 39.4451 63.3614 39.9771 62.8365 40.3718C62.3116 40.7671 61.631 40.9645 60.7946 40.9645C60.009 40.9645 59.3678 40.7899 58.8711 40.4401" fill="white"/>
<path d="M18.3895 40.6213V31.5222H17.0684V30.2637H19.8493V39.3634H20.9865L19.7204 40.6213" fill="white"/>
</g>
<defs>
<linearGradient id="paint0_linear_7552_5570" x1="30.2118" y1="39.2852" x2="59.9466" y2="0.120118" gradientUnits="userSpaceOnUse">
<stop stop-color="#262262"/>
<stop offset="0.42" stop-color="#1C75BC"/>
<stop offset="0.98" stop-color="#8DC63F"/>
</linearGradient>
<clipPath id="clip0_7552_5570">
<rect width="68" height="69" fill="white"/>
</clipPath>
</defs>
</svg>
